<svg id="svg" version="1.1" xmlns="http://www.w3.org/2000/svg" xmlns:xlink="http://www.w3.org/1999/xlink" width="400" height="400" viewBox="0, 0, 400,400"><g id="svgg"><path id="path0" d="M101.200 81.600 C 101.200 81.820,100.840 82.000,100.400 82.000 C 99.960 82.000,99.600 82.180,99.600 82.400 C 99.600 82.620,99.326 82.800,98.991 82.800 C 98.199 82.800,94.000 86.999,94.000 87.791 C 94.000 88.126,93.820 88.400,93.600 88.400 C 93.380 88.400,93.200 88.760,93.200 89.200 C 93.200 89.640,93.020 90.000,92.800 90.000 C 92.580 90.000,92.400 90.360,92.400 90.800 C 92.400 91.240,92.220 91.600,92.000 91.600 C 91.780 91.600,91.600 92.140,91.600 92.800 C 91.600 93.460,91.420 94.000,91.200 94.000 C 90.980 94.000,90.800 94.360,90.800 94.800 C 90.800 95.240,90.620 95.600,90.400 95.600 C 90.180 95.600,90.000 96.056,90.000 96.613 C 90.000 97.236,89.466 98.161,88.613 99.013 C 87.761 99.866,86.836 100.400,86.213 100.400 C 85.656 100.400,85.200 100.580,85.200 100.800 C 85.200 101.020,84.480 101.200,83.600 101.200 C 82.720 101.200,82.000 101.380,82.000 101.600 C 82.000 101.820,81.280 102.000,80.400 102.000 C 79.520 102.000,78.800 102.180,78.800 102.400 C 78.800 102.620,78.300 102.800,77.688 102.800 C 77.035 102.800,76.339 103.130,76.000 103.600 C 75.683 104.040,75.188 104.400,74.901 104.400 C 74.173 104.400,70.800 107.845,70.800 108.589 C 70.800 108.925,70.620 109.200,70.400 109.200 C 70.180 109.200,70.000 109.560,70.000 110.000 C 70.000 110.440,69.820 110.800,69.600 110.800 C 69.380 110.800,69.200 111.520,69.200 112.400 C 69.200 113.280,69.020 114.000,68.800 114.000 C 68.552 114.000,68.400 116.133,68.400 119.600 C 68.400 123.067,68.552 125.200,68.800 125.200 C 69.020 125.200,69.200 125.740,69.200 126.400 C 69.200 127.060,69.380 127.600,69.600 127.600 C 69.820 127.600,70.000 127.878,70.000 128.218 C 70.000 129.018,71.782 130.800,72.582 130.800 C 72.922 130.800,73.200 130.980,73.200 131.200 C 73.200 131.420,73.560 131.600,74.000 131.600 C 74.440 131.600,74.800 131.780,74.800 132.000 C 74.800 132.226,75.943 132.400,77.429 132.400 C 79.173 132.400,80.249 132.592,80.629 132.971 C 81.278 133.621,81.407 135.600,80.800 135.600 C 80.580 135.600,80.400 136.320,80.400 137.200 C 80.400 138.080,80.220 138.800,80.000 138.800 C 79.780 138.800,79.600 139.520,79.600 140.400 C 79.600 141.280,79.420 142.000,79.200 142.000 C 78.980 142.000,78.800 142.540,78.800 143.200 C 78.800 143.860,78.620 144.400,78.400 144.400 C 78.180 144.400,78.000 144.940,78.000 145.600 C 78.000 146.260,77.820 146.800,77.600 146.800 C 77.380 146.800,77.200 147.520,77.200 148.400 C 77.200 149.280,77.020 150.000,76.800 150.000 C 76.580 150.000,76.400 150.540,76.400 151.200 C 76.400 151.860,76.220 152.400,76.000 152.400 C 75.780 152.400,75.600 152.940,75.600 153.600 C 75.600 154.260,75.420 154.800,75.200 154.800 C 74.980 154.800,74.800 155.340,74.800 156.000 C 74.800 156.660,74.620 157.200,74.400 157.200 C 74.180 157.200,74.000 157.740,74.000 158.400 C 74.000 159.060,73.820 159.600,73.600 159.600 C 73.380 159.600,73.200 160.140,73.200 160.800 C 73.200 161.460,73.020 162.000,72.800 162.000 C 72.580 162.000,72.400 162.540,72.400 163.200 C 72.400 163.860,72.220 164.400,72.000 164.400 C 71.780 164.400,71.600 164.940,71.600 165.600 C 71.600 166.260,71.420 166.800,71.200 166.800 C 70.980 166.800,70.800 167.340,70.800 168.000 C 70.800 168.660,70.620 169.200,70.400 169.200 C 70.180 169.200,70.000 169.740,70.000 170.400 C 70.000 171.060,69.820 171.600,69.600 171.600 C 69.380 171.600,69.200 172.140,69.200 172.800 C 69.200 173.460,69.020 174.000,68.800 174.000 C 68.580 174.000,68.400 174.360,68.400 174.800 C 68.400 175.240,68.220 175.600,68.000 175.600 C 67.780 175.600,67.600 176.140,67.600 176.800 C 67.600 177.460,67.420 178.000,67.200 178.000 C 66.980 178.000,66.800 178.540,66.800 179.200 C 66.800 179.860,66.620 180.400,66.400 180.400 C 66.180 180.400,66.000 180.940,66.000 181.600 C 66.000 182.260,65.820 182.800,65.600 182.800 C 65.380 182.800,65.200 183.340,65.200 184.000 C 65.200 184.660,65.020 185.200,64.800 185.200 C 64.580 185.200,64.400 185.740,64.400 186.400 C 64.400 187.060,64.220 187.600,64.000 187.600 C 63.780 187.600,63.600 188.140,63.600 188.800 C 63.600 189.460,63.420 190.000,63.200 190.000 C 62.980 190.000,62.800 190.540,62.800 191.200 C 62.800 191.860,62.620 192.400,62.400 192.400 C 62.180 192.400,62.000 192.940,62.000 193.600 C 62.000 194.260,61.820 194.800,61.600 194.800 C 61.380 194.800,61.200 195.340,61.200 196.000 C 61.200 196.660,61.020 197.200,60.800 197.200 C 60.580 197.200,60.400 197.920,60.400 198.800 C 60.400 199.680,60.220 200.400,60.000 200.400 C 59.780 200.400,59.600 200.940,59.600 201.600 C 59.600 202.260,59.420 202.800,59.200 202.800 C 58.980 202.800,58.800 203.520,58.800 204.400 C 58.800 205.280,58.620 206.000,58.400 206.000 C 58.180 206.000,58.000 206.720,58.000 207.600 C 58.000 208.480,57.820 209.200,57.600 209.200 C 57.380 209.200,57.200 209.740,57.200 210.400 C 57.200 211.060,57.020 211.600,56.800 211.600 C 56.580 211.600,56.400 212.320,56.400 213.200 C 56.400 214.080,56.220 214.800,56.000 214.800 C 55.780 214.800,55.600 215.520,55.600 216.400 C 55.600 217.280,55.420 218.000,55.200 218.000 C 54.980 218.000,54.800 218.720,54.800 219.600 C 54.800 220.480,54.620 221.200,54.400 221.200 C 54.180 221.200,54.000 221.920,54.000 222.800 C 54.000 223.680,53.820 224.400,53.600 224.400 C 53.380 224.400,53.200 225.120,53.200 226.000 C 53.200 226.880,53.020 227.600,52.800 227.600 C 52.580 227.600,52.400 228.320,52.400 229.200 C 52.400 230.080,52.220 230.800,52.000 230.800 C 51.780 230.800,51.600 231.520,51.600 232.400 C 51.600 233.280,51.420 234.000,51.200 234.000 C 50.980 234.000,50.800 234.900,50.800 236.000 C 50.800 237.100,50.620 238.000,50.400 238.000 C 50.180 238.000,50.000 238.720,50.000 239.600 C 50.000 240.480,49.820 241.200,49.600 241.200 C 49.380 241.200,49.200 241.920,49.200 242.800 C 49.200 243.680,49.020 244.400,48.800 244.400 C 48.580 244.400,48.400 245.120,48.400 246.000 C 48.400 246.880,48.220 247.600,48.000 247.600 C 47.780 247.600,47.600 248.320,47.600 249.200 C 47.600 250.080,47.420 250.800,47.200 250.800 C 46.980 250.800,46.800 251.520,46.800 252.400 C 46.800 253.280,46.620 254.000,46.400 254.000 C 46.180 254.000,46.000 254.720,46.000 255.600 C 46.000 256.480,45.820 257.200,45.600 257.200 C 45.380 257.200,45.200 257.920,45.200 258.800 C 45.200 259.680,45.020 260.400,44.800 260.400 C 44.580 260.400,44.400 261.120,44.400 262.000 C 44.400 262.880,44.220 263.600,44.000 263.600 C 43.780 263.600,43.600 264.140,43.600 264.800 C 43.600 265.460,43.420 266.000,43.200 266.000 C 42.980 266.000,42.800 266.540,42.800 267.200 C 42.800 267.860,42.620 268.400,42.400 268.400 C 42.180 268.400,42.000 268.940,42.000 269.600 C 42.000 270.260,41.820 270.800,41.600 270.800 C 41.380 270.800,41.200 271.160,41.200 271.600 C 41.200 272.040,41.020 272.400,40.800 272.400 C 40.580 272.400,40.400 272.940,40.400 273.600 C 40.400 274.260,40.220 274.800,40.000 274.800 C 39.780 274.800,39.600 275.160,39.600 275.600 C 39.600 276.040,39.420 276.400,39.200 276.400 C 38.980 276.400,38.800 276.760,38.800 277.200 C 38.800 277.640,38.620 278.000,38.400 278.000 C 38.180 278.000,38.000 278.360,38.000 278.800 C 38.000 279.240,37.820 279.600,37.600 279.600 C 37.380 279.600,37.200 280.140,37.200 280.800 C 37.200 281.460,37.020 282.000,36.800 282.000 C 36.554 282.000,36.400 284.000,36.400 287.200 C 36.400 290.400,36.554 292.400,36.800 292.400 C 37.020 292.400,37.200 292.940,37.200 293.600 C 37.200 294.260,37.380 294.800,37.600 294.800 C 37.820 294.800,38.000 295.160,38.000 295.600 C 38.000 296.040,38.180 296.400,38.400 296.400 C 38.620 296.400,38.800 296.676,38.800 297.013 C 38.800 297.809,41.391 300.400,42.187 300.400 C 42.524 300.400,42.800 300.580,42.800 300.800 C 42.800 301.033,44.133 301.200,46.000 301.200 C 47.867 301.200,49.200 301.033,49.200 300.800 C 49.200 300.580,49.740 300.400,50.400 300.400 C 51.060 300.400,51.600 300.220,51.600 300.000 C 51.600 299.780,51.873 299.600,52.206 299.600 C 52.942 299.600,59.600 293.022,59.600 292.294 C 59.600 292.009,59.960 291.517,60.400 291.200 C 60.840 290.883,61.200 290.303,61.200 289.912 C 61.200 289.520,61.380 289.200,61.600 289.200 C 61.820 289.200,62.000 288.840,62.000 288.400 C 62.000 287.960,62.180 287.600,62.400 287.600 C 62.620 287.600,62.800 287.240,62.800 286.800 C 62.800 286.360,62.980 286.000,63.200 286.000 C 63.420 286.000,63.600 285.640,63.600 285.200 C 63.600 284.760,63.780 284.400,64.000 284.400 C 64.220 284.400,64.400 283.680,64.400 282.800 C 64.400 281.920,64.580 281.200,64.800 281.200 C 65.020 281.200,65.200 280.480,65.200 279.600 C 65.200 278.720,65.380 278.000,65.600 278.000 C 65.820 278.000,66.000 277.280,66.000 276.400 C 66.000 275.520,66.180 274.800,66.400 274.800 C 66.620 274.800,66.800 274.080,66.800 273.200 C 66.800 272.320,66.980 271.600,67.200 271.600 C 67.420 271.600,67.600 270.700,67.600 269.600 C 67.600 268.500,67.780 267.600,68.000 267.600 C 68.220 267.600,68.400 266.880,68.400 266.000 C 68.400 265.120,68.580 264.400,68.800 264.400 C 69.020 264.400,69.200 263.500,69.200 262.400 C 69.200 261.300,69.380 260.400,69.600 260.400 C 69.820 260.400,70.000 259.500,70.000 258.400 C 70.000 257.300,70.180 256.400,70.400 256.400 C 70.620 256.400,70.800 255.500,70.800 254.400 C 70.800 253.300,70.980 252.400,71.200 252.400 C 71.420 252.400,71.600 251.680,71.600 250.800 C 71.600 249.920,71.780 249.200,72.000 249.200 C 72.220 249.200,72.400 248.300,72.400 247.200 C 72.400 246.100,72.580 245.200,72.800 245.200 C 73.020 245.200,73.200 244.480,73.200 243.600 C 73.200 242.720,73.380 242.000,73.600 242.000 C 73.820 242.000,74.000 241.280,74.000 240.400 C 74.000 239.520,74.180 238.800,74.400 238.800 C 74.620 238.800,74.800 238.080,74.800 237.200 C 74.800 236.320,74.980 235.600,75.200 235.600 C 75.420 235.600,75.600 234.880,75.600 234.000 C 75.600 233.120,75.780 232.400,76.000 232.400 C 76.220 232.400,76.400 231.680,76.400 230.800 C 76.400 229.920,76.580 229.200,76.800 229.200 C 77.020 229.200,77.200 228.737,77.200 228.171 C 77.200 226.748,78.086 226.000,79.771 226.000 C 80.557 226.000,81.200 225.820,81.200 225.600 C 81.200 225.378,82.267 225.200,83.600 225.200 C 84.933 225.200,86.000 225.022,86.000 224.800 C 86.000 224.580,86.900 224.400,88.000 224.400 C 89.100 224.400,90.000 224.220,90.000 224.000 C 90.000 223.780,90.900 223.600,92.000 223.600 C 93.100 223.600,94.000 223.420,94.000 223.200 C 94.000 222.980,94.900 222.800,96.000 222.800 C 97.100 222.800,98.000 222.620,98.000 222.400 C 98.000 222.180,98.900 222.000,100.000 222.000 C 101.100 222.000,102.000 221.820,102.000 221.600 C 102.000 221.380,102.720 221.200,103.600 221.200 C 104.480 221.200,105.200 221.020,105.200 220.800 C 105.200 220.580,106.100 220.400,107.200 220.400 C 108.300 220.400,109.200 220.220,109.200 220.000 C 109.200 219.780,110.100 219.600,111.200 219.600 C 112.300 219.600,113.200 219.420,113.200 219.200 C 113.200 218.980,113.920 218.800,114.800 218.800 C 115.680 218.800,116.400 218.620,116.400 218.400 C 116.400 218.180,117.300 218.000,118.400 218.000 C 119.500 218.000,120.400 217.820,120.400 217.600 C 120.400 217.380,121.120 217.200,122.000 217.200 C 122.880 217.200,123.600 217.020,123.600 216.800 C 123.600 216.580,124.320 216.400,125.200 216.400 C 126.080 216.400,126.800 216.220,126.800 216.000 C 126.800 215.780,127.520 215.600,128.400 215.600 C 129.280 215.600,130.000 215.420,130.000 215.200 C 130.000 214.980,130.540 214.800,131.200 214.800 C 131.860 214.800,132.400 214.620,132.400 214.400 C 132.400 214.180,133.120 214.000,134.000 214.000 C 134.880 214.000,135.600 213.820,135.600 213.600 C 135.600 213.380,136.140 213.200,136.800 213.200 C 137.460 213.200,138.000 213.020,138.000 212.800 C 138.000 212.580,138.540 212.400,139.200 212.400 C 139.860 212.400,140.400 212.220,140.400 212.000 C 140.400 211.780,140.940 211.600,141.600 211.600 C 142.260 211.600,142.800 211.420,142.800 211.200 C 142.800 210.980,143.340 210.800,144.000 210.800 C 144.660 210.800,145.200 210.620,145.200 210.400 C 145.200 210.180,145.740 210.000,146.400 210.000 C 147.060 210.000,147.600 209.820,147.600 209.600 C 147.600 209.380,148.140 209.200,148.800 209.200 C 149.460 209.200,150.000 209.020,150.000 208.800 C 150.000 208.580,150.540 208.400,151.200 208.400 C 151.860 208.400,152.400 208.220,152.400 208.000 C 152.400 207.780,152.760 207.600,153.200 207.600 C 153.640 207.600,154.000 207.420,154.000 207.200 C 154.000 206.980,154.540 206.800,155.200 206.800 C 155.860 206.800,156.400 206.620,156.400 206.400 C 156.400 206.180,156.760 206.000,157.200 206.000 C 157.640 206.000,158.000 205.820,158.000 205.600 C 158.000 205.380,158.540 205.200,159.200 205.200 C 159.860 205.200,160.400 205.020,160.400 204.800 C 160.400 204.580,160.760 204.400,161.200 204.400 C 161.640 204.400,162.000 204.220,162.000 204.000 C 162.000 203.780,162.360 203.600,162.800 203.600 C 163.240 203.600,163.600 203.420,163.600 203.200 C 163.600 202.980,164.140 202.800,164.800 202.800 C 165.460 202.800,166.000 202.620,166.000 202.400 C 166.000 202.180,166.360 202.000,166.800 202.000 C 167.240 202.000,167.600 201.820,167.600 201.600 C 167.600 201.380,167.960 201.200,168.400 201.200 C 168.840 201.200,169.200 201.020,169.200 200.800 C 169.200 200.580,169.560 200.400,170.000 200.400 C 170.440 200.400,170.800 200.220,170.800 200.000 C 170.800 199.780,171.160 199.600,171.600 199.600 C 172.040 199.600,172.400 199.420,172.400 199.200 C 172.400 198.980,172.720 198.800,173.112 198.800 C 173.503 198.800,174.083 198.440,174.400 198.000 C 174.717 197.560,175.297 197.200,175.688 197.200 C 176.080 197.200,176.400 197.020,176.400 196.800 C 176.400 196.580,176.760 196.400,177.200 196.400 C 177.640 196.400,178.000 196.220,178.000 196.000 C 178.000 195.780,178.320 195.600,178.712 195.600 C 179.103 195.600,179.683 195.240,180.000 194.800 C 180.317 194.360,180.897 194.000,181.288 194.000 C 181.680 194.000,182.000 193.820,182.000 193.600 C 182.000 193.380,182.288 193.200,182.640 193.200 C 182.991 193.200,183.783 192.660,184.400 192.000 C 185.017 191.340,185.769 190.800,186.072 190.800 C 186.375 190.800,186.883 190.440,187.200 190.000 C 187.517 189.560,188.025 189.200,188.328 189.200 C 188.631 189.200,189.383 188.660,190.000 188.000 C 190.617 187.340,191.329 186.800,191.583 186.800 C 191.837 186.800,193.104 185.720,194.400 184.400 C 195.696 183.080,196.949 182.000,197.185 182.000 C 197.751 182.000,202.800 176.943,202.800 176.376 C 202.800 176.135,203.520 175.246,204.400 174.400 C 205.280 173.554,206.000 172.618,206.000 172.320 C 206.000 172.021,206.360 171.517,206.800 171.200 C 207.240 170.883,207.600 170.303,207.600 169.912 C 207.600 169.520,207.780 169.200,208.000 169.200 C 208.220 169.200,208.400 168.660,208.400 168.000 C 208.400 167.340,208.580 166.800,208.800 166.800 C 209.020 166.800,209.200 166.440,209.200 166.000 C 209.200 165.560,209.380 165.200,209.600 165.200 C 209.820 165.200,210.000 164.300,210.000 163.200 C 210.000 162.100,210.180 161.200,210.400 161.200 C 210.620 161.200,210.800 160.300,210.800 159.200 C 210.800 158.100,210.980 157.200,211.200 157.200 C 211.422 157.200,211.600 156.133,211.600 154.800 C 211.600 153.467,211.778 152.400,212.000 152.400 C 212.246 152.400,212.400 150.400,212.400 147.200 C 212.400 144.000,212.246 142.000,212.000 142.000 C 211.778 142.000,211.600 140.933,211.600 139.600 C 211.600 138.267,211.422 137.200,211.200 137.200 C 210.980 137.200,210.800 136.660,210.800 136.000 C 210.800 135.340,210.620 134.800,210.400 134.800 C 210.180 134.800,210.000 134.260,210.000 133.600 C 210.000 132.940,209.820 132.400,209.600 132.400 C 209.380 132.400,209.200 132.040,209.200 131.600 C 209.200 131.160,209.020 130.800,208.800 130.800 C 208.580 130.800,208.400 130.440,208.400 130.000 C 208.400 129.560,208.220 129.200,208.000 129.200 C 207.780 129.200,207.600 128.912,207.600 128.560 C 207.600 128.209,207.060 127.417,206.400 126.800 C 205.740 126.183,205.200 125.467,205.200 125.208 C 205.200 124.949,204.480 124.046,203.600 123.200 C 202.720 122.354,202.000 121.456,202.000 121.203 C 202.000 120.613,200.993 119.600,200.406 119.600 C 200.159 119.600,198.896 118.520,197.600 117.200 C 196.304 115.880,195.037 114.800,194.783 114.800 C 194.529 114.800,193.817 114.260,193.200 113.600 C 192.583 112.940,191.791 112.400,191.440 112.400 C 191.088 112.400,190.800 112.220,190.800 112.000 C 190.800 111.780,190.480 111.600,190.088 111.600 C 189.697 111.600,189.117 111.240,188.800 110.800 C 188.483 110.360,187.903 110.000,187.512 110.000 C 187.120 110.000,186.800 109.820,186.800 109.600 C 186.800 109.380,186.440 109.200,186.000 109.200 C 185.560 109.200,185.200 109.020,185.200 108.800 C 185.200 108.580,184.840 108.400,184.400 108.400 C 183.960 108.400,183.600 108.220,183.600 108.000 C 183.600 107.780,183.240 107.600,182.800 107.600 C 182.360 107.600,182.000 107.420,182.000 107.200 C 182.000 106.980,181.460 106.800,180.800 106.800 C 180.140 106.800,179.600 106.620,179.600 106.400 C 179.600 106.180,179.240 106.000,178.800 106.000 C 178.360 106.000,178.000 105.820,178.000 105.600 C 178.000 105.380,177.460 105.200,176.800 105.200 C 176.140 105.200,175.600 105.020,175.600 104.800 C 175.600 104.580,175.060 104.400,174.400 104.400 C 173.740 104.400,173.200 104.220,173.200 104.000 C 173.200 103.780,172.660 103.600,172.000 103.600 C 171.340 103.600,170.800 103.420,170.800 103.200 C 170.800 102.980,170.260 102.800,169.600 102.800 C 168.940 102.800,168.400 102.620,168.400 102.400 C 168.400 102.180,167.680 102.000,166.800 102.000 C 165.920 102.000,165.200 101.820,165.200 101.600 C 165.200 101.380,164.660 101.200,164.000 101.200 C 163.340 101.200,162.800 101.020,162.800 100.800 C 162.800 100.580,161.900 100.400,160.800 100.400 C 159.700 100.400,158.800 100.220,158.800 100.000 C 158.800 99.778,157.733 99.600,156.400 99.600 C 155.067 99.600,154.000 99.422,154.000 99.200 C 154.000 98.971,152.800 98.800,151.200 98.800 C 149.600 98.800,148.400 98.629,148.400 98.400 C 148.400 98.167,147.067 98.000,145.200 98.000 C 143.333 98.000,142.000 97.833,142.000 97.600 C 142.000 97.356,140.133 97.200,137.200 97.200 C 134.267 97.200,132.400 97.044,132.400 96.800 C 132.400 96.552,130.190 96.400,126.571 96.400 C 120.534 96.400,119.600 96.163,119.600 94.629 C 119.600 94.283,119.420 94.000,119.200 94.000 C 118.980 94.000,118.800 93.460,118.800 92.800 C 118.800 92.140,118.620 91.600,118.400 91.600 C 118.180 91.600,118.000 91.240,118.000 90.800 C 118.000 90.360,117.820 90.000,117.600 90.000 C 117.380 90.000,117.200 89.680,117.200 89.288 C 117.200 88.897,116.840 88.317,116.400 88.000 C 115.960 87.683,115.600 87.189,115.600 86.903 C 115.600 86.175,111.350 82.000,110.609 82.000 C 110.274 82.000,110.000 81.820,110.000 81.600 C 110.000 81.358,108.267 81.200,105.600 81.200 C 102.933 81.200,101.200 81.358,101.200 81.600 M150.000 123.200 C 150.000 123.442,151.733 123.600,154.400 123.600 C 157.067 123.600,158.800 123.758,158.800 124.000 C 158.800 124.222,159.867 124.400,161.200 124.400 C 162.533 124.400,163.600 124.578,163.600 124.800 C 163.600 125.020,164.320 125.200,165.200 125.200 C 166.080 125.200,166.800 125.380,166.800 125.600 C 166.800 125.820,167.340 126.000,168.000 126.000 C 168.660 126.000,169.200 126.180,169.200 126.400 C 169.200 126.620,169.740 126.800,170.400 126.800 C 171.060 126.800,171.600 126.980,171.600 127.200 C 171.600 127.420,172.140 127.600,172.800 127.600 C 173.460 127.600,174.000 127.780,174.000 128.000 C 174.000 128.220,174.360 128.400,174.800 128.400 C 175.240 128.400,175.600 128.580,175.600 128.800 C 175.600 129.020,175.920 129.200,176.312 129.200 C 176.703 129.200,177.283 129.560,177.600 130.000 C 177.917 130.440,178.497 130.800,178.888 130.800 C 179.280 130.800,179.600 130.980,179.600 131.200 C 179.600 131.420,179.873 131.600,180.206 131.600 C 180.942 131.600,187.600 138.178,187.600 138.906 C 187.600 139.191,187.960 139.683,188.400 140.000 C 188.840 140.317,189.200 140.897,189.200 141.288 C 189.200 141.680,189.380 142.000,189.600 142.000 C 189.820 142.000,190.000 142.360,190.000 142.800 C 190.000 143.240,190.180 143.600,190.400 143.600 C 190.620 143.600,190.800 144.140,190.800 144.800 C 190.800 145.460,190.980 146.000,191.200 146.000 C 191.440 146.000,191.600 147.600,191.600 150.000 C 191.600 152.400,191.440 154.000,191.200 154.000 C 190.980 154.000,190.800 154.360,190.800 154.800 C 190.800 155.240,190.620 155.600,190.400 155.600 C 190.180 155.600,190.000 155.920,190.000 156.312 C 190.000 156.703,189.640 157.283,189.200 157.600 C 188.760 157.917,188.400 158.410,188.400 158.696 C 188.400 159.324,183.396 164.400,182.776 164.400 C 182.535 164.400,181.646 165.120,180.800 166.000 C 179.954 166.880,179.018 167.600,178.720 167.600 C 178.421 167.600,177.917 167.960,177.600 168.400 C 177.283 168.840,176.743 169.200,176.400 169.200 C 176.057 169.200,175.517 169.560,175.200 170.000 C 174.883 170.440,174.343 170.800,174.000 170.800 C 173.657 170.800,173.117 171.160,172.800 171.600 C 172.483 172.040,171.903 172.400,171.512 172.400 C 171.120 172.400,170.800 172.580,170.800 172.800 C 170.800 173.020,170.440 173.200,170.000 173.200 C 169.560 173.200,169.200 173.380,169.200 173.600 C 169.200 173.820,168.840 174.000,168.400 174.000 C 167.960 174.000,167.600 174.180,167.600 174.400 C 167.600 174.620,167.240 174.800,166.800 174.800 C 166.360 174.800,166.000 174.980,166.000 175.200 C 166.000 175.420,165.640 175.600,165.200 175.600 C 164.760 175.600,164.400 175.780,164.400 176.000 C 164.400 176.220,164.040 176.400,163.600 176.400 C 163.160 176.400,162.800 176.580,162.800 176.800 C 162.800 177.020,162.440 177.200,162.000 177.200 C 161.560 177.200,161.200 177.380,161.200 177.600 C 161.200 177.820,160.840 178.000,160.400 178.000 C 159.960 178.000,159.600 178.180,159.600 178.400 C 159.600 178.620,159.240 178.800,158.800 178.800 C 158.360 178.800,158.000 178.980,158.000 179.200 C 158.000 179.420,157.640 179.600,157.200 179.600 C 156.760 179.600,156.400 179.780,156.400 180.000 C 156.400 180.220,155.860 180.400,155.200 180.400 C 154.540 180.400,154.000 180.580,154.000 180.800 C 154.000 181.020,153.640 181.200,153.200 181.200 C 152.760 181.200,152.400 181.380,152.400 181.600 C 152.400 181.820,151.860 182.000,151.200 182.000 C 150.540 182.000,150.000 182.180,150.000 182.400 C 150.000 182.620,149.640 182.800,149.200 182.800 C 148.760 182.800,148.400 182.980,148.400 183.200 C 148.400 183.420,147.860 183.600,147.200 183.600 C 146.540 183.600,146.000 183.780,146.000 184.000 C 146.000 184.220,145.640 184.400,145.200 184.400 C 144.760 184.400,144.400 184.580,144.400 184.800 C 144.400 185.020,143.860 185.200,143.200 185.200 C 142.540 185.200,142.000 185.380,142.000 185.600 C 142.000 185.820,141.460 186.000,140.800 186.000 C 140.140 186.000,139.600 186.180,139.600 186.400 C 139.600 186.620,139.060 186.800,138.400 186.800 C 137.740 186.800,137.200 186.980,137.200 187.200 C 137.200 187.420,136.660 187.600,136.000 187.600 C 135.340 187.600,134.800 187.780,134.800 188.000 C 134.800 188.220,134.260 188.400,133.600 188.400 C 132.940 188.400,132.400 188.580,132.400 188.800 C 132.400 189.020,131.860 189.200,131.200 189.200 C 130.540 189.200,130.000 189.380,130.000 189.600 C 130.000 189.820,129.460 190.000,128.800 190.000 C 128.140 190.000,127.600 190.180,127.600 190.400 C 127.600 190.620,127.060 190.800,126.400 190.800 C 125.740 190.800,125.200 190.980,125.200 191.200 C 125.200 191.420,124.480 191.600,123.600 191.600 C 122.720 191.600,122.000 191.780,122.000 192.000 C 122.000 192.220,121.460 192.400,120.800 192.400 C 120.140 192.400,119.600 192.580,119.600 192.800 C 119.600 193.020,118.880 193.200,118.000 193.200 C 117.120 193.200,116.400 193.380,116.400 193.600 C 116.400 193.820,115.680 194.000,114.800 194.000 C 113.920 194.000,113.200 194.180,113.200 194.400 C 113.200 194.620,112.480 194.800,111.600 194.800 C 110.720 194.800,110.000 194.980,110.000 195.200 C 110.000 195.420,109.100 195.600,108.000 195.600 C 106.900 195.600,106.000 195.780,106.000 196.000 C 106.000 196.220,105.280 196.400,104.400 196.400 C 103.520 196.400,102.800 196.580,102.800 196.800 C 102.800 197.022,101.733 197.200,100.400 197.200 C 99.067 197.200,98.000 197.378,98.000 197.600 C 98.000 197.820,97.100 198.000,96.000 198.000 C 94.900 198.000,94.000 198.180,94.000 198.400 C 94.000 198.622,92.933 198.800,91.600 198.800 C 90.267 198.800,89.200 198.978,89.200 199.200 C 89.200 199.420,88.660 199.600,88.000 199.600 C 86.867 199.600,86.800 199.511,86.800 198.000 C 86.800 197.120,86.980 196.400,87.200 196.400 C 87.420 196.400,87.600 195.680,87.600 194.800 C 87.600 193.920,87.780 193.200,88.000 193.200 C 88.220 193.200,88.400 192.660,88.400 192.000 C 88.400 191.340,88.580 190.800,88.800 190.800 C 89.020 190.800,89.200 190.080,89.200 189.200 C 89.200 188.320,89.380 187.600,89.600 187.600 C 89.820 187.600,90.000 187.060,90.000 186.400 C 90.000 185.740,90.180 185.200,90.400 185.200 C 90.620 185.200,90.800 184.660,90.800 184.000 C 90.800 183.340,90.980 182.800,91.200 182.800 C 91.420 182.800,91.600 182.260,91.600 181.600 C 91.600 180.940,91.780 180.400,92.000 180.400 C 92.220 180.400,92.400 179.860,92.400 179.200 C 92.400 178.540,92.580 178.000,92.800 178.000 C 93.020 178.000,93.200 177.460,93.200 176.800 C 93.200 176.140,93.380 175.600,93.600 175.600 C 93.820 175.600,94.000 175.060,94.000 174.400 C 94.000 173.740,94.180 173.200,94.400 173.200 C 94.620 173.200,94.800 172.660,94.800 172.000 C 94.800 171.340,94.980 170.800,95.200 170.800 C 95.420 170.800,95.600 170.260,95.600 169.600 C 95.600 168.940,95.780 168.400,96.000 168.400 C 96.220 168.400,96.400 167.860,96.400 167.200 C 96.400 166.540,96.580 166.000,96.800 166.000 C 97.020 166.000,97.200 165.640,97.200 165.200 C 97.200 164.760,97.380 164.400,97.600 164.400 C 97.820 164.400,98.000 163.860,98.000 163.200 C 98.000 162.540,98.180 162.000,98.400 162.000 C 98.620 162.000,98.800 161.460,98.800 160.800 C 98.800 160.140,98.980 159.600,99.200 159.600 C 99.420 159.600,99.600 159.060,99.600 158.400 C 99.600 157.740,99.780 157.200,100.000 157.200 C 100.220 157.200,100.400 156.660,100.400 156.000 C 100.400 155.340,100.580 154.800,100.800 154.800 C 101.020 154.800,101.200 154.440,101.200 154.000 C 101.200 153.560,101.380 153.200,101.600 153.200 C 101.820 153.200,102.000 152.660,102.000 152.000 C 102.000 151.340,102.180 150.800,102.400 150.800 C 102.620 150.800,102.800 150.260,102.800 149.600 C 102.800 148.940,102.980 148.400,103.200 148.400 C 103.420 148.400,103.600 147.860,103.600 147.200 C 103.600 146.540,103.780 146.000,104.000 146.000 C 104.220 146.000,104.400 145.640,104.400 145.200 C 104.400 144.760,104.580 144.400,104.800 144.400 C 105.020 144.400,105.200 143.860,105.200 143.200 C 105.200 142.540,105.380 142.000,105.600 142.000 C 105.820 142.000,106.000 141.460,106.000 140.800 C 106.000 140.140,106.180 139.600,106.400 139.600 C 106.620 139.600,106.800 139.240,106.800 138.800 C 106.800 138.360,106.980 138.000,107.200 138.000 C 107.420 138.000,107.600 137.460,107.600 136.800 C 107.600 136.140,107.780 135.600,108.000 135.600 C 108.220 135.600,108.400 135.240,108.400 134.800 C 108.400 134.360,108.580 134.000,108.800 134.000 C 109.020 134.000,109.200 133.460,109.200 132.800 C 109.200 132.140,109.380 131.600,109.600 131.600 C 109.820 131.600,110.000 131.060,110.000 130.400 C 110.000 129.740,110.180 129.200,110.400 129.200 C 110.620 129.200,110.800 128.924,110.800 128.587 C 110.800 127.171,113.470 125.200,115.387 125.200 C 116.384 125.200,117.200 125.020,117.200 124.800 C 117.200 124.571,118.400 124.400,120.000 124.400 C 121.600 124.400,122.800 124.229,122.800 124.000 C 122.800 123.756,124.667 123.600,127.600 123.600 C 130.533 123.600,132.400 123.444,132.400 123.200 C 132.400 122.945,135.600 122.800,141.200 122.800 C 146.800 122.800,150.000 122.945,150.000 123.200 " stroke="none" fill="#0ccc1c" fill-rule="evenodd"></path><path id="path1" d="M332.400 88.000 C 332.400 88.229,331.200 88.400,329.600 88.400 C 328.000 88.400,326.800 88.571,326.800 88.800 C 326.800 89.020,325.900 89.200,324.800 89.200 C 323.700 89.200,322.800 89.380,322.800 89.600 C 322.800 89.820,321.900 90.000,320.800 90.000 C 319.700 90.000,318.800 90.180,318.800 90.400 C 318.800 90.620,318.260 90.800,317.600 90.800 C 316.940 90.800,316.400 90.980,316.400 91.200 C 316.400 91.420,315.860 91.600,315.200 91.600 C 314.540 91.600,314.000 91.780,314.000 92.000 C 314.000 92.220,313.460 92.400,312.800 92.400 C 312.140 92.400,311.600 92.580,311.600 92.800 C 311.600 93.020,311.240 93.200,310.800 93.200 C 310.360 93.200,310.000 93.380,310.000 93.600 C 310.000 93.820,309.640 94.000,309.200 94.000 C 308.760 94.000,308.400 94.180,308.400 94.400 C 308.400 94.620,307.860 94.800,307.200 94.800 C 306.540 94.800,306.000 94.980,306.000 95.200 C 306.000 95.420,305.640 95.600,305.200 95.600 C 304.760 95.600,304.400 95.780,304.400 96.000 C 304.400 96.220,304.040 96.400,303.600 96.400 C 303.160 96.400,302.800 96.580,302.800 96.800 C 302.800 97.020,302.480 97.200,302.088 97.200 C 301.697 97.200,301.117 97.560,300.800 98.000 C 300.483 98.440,299.903 98.800,299.512 98.800 C 299.120 98.800,298.800 98.980,298.800 99.200 C 298.800 99.420,298.440 99.600,298.000 99.600 C 297.560 99.600,297.200 99.780,297.200 100.000 C 297.200 100.220,296.840 100.400,296.400 100.400 C 295.960 100.400,295.600 100.580,295.600 100.800 C 295.600 101.020,295.280 101.200,294.888 101.200 C 294.497 101.200,293.917 101.560,293.600 102.000 C 293.283 102.440,292.703 102.800,292.312 102.800 C 291.920 102.800,291.600 102.980,291.600 103.200 C 291.600 103.420,291.280 103.600,290.888 103.600 C 290.497 103.600,289.917 103.960,289.600 104.400 C 289.283 104.840,288.743 105.200,288.400 105.200 C 288.057 105.200,287.517 105.560,287.200 106.000 C 286.883 106.440,286.343 106.800,286.000 106.800 C 285.657 106.800,285.117 107.160,284.800 107.600 C 284.483 108.040,283.943 108.400,283.600 108.400 C 283.257 108.400,282.717 108.760,282.400 109.200 C 282.083 109.640,281.543 110.000,281.200 110.000 C 280.857 110.000,280.317 110.360,280.000 110.800 C 279.683 111.240,279.175 111.600,278.872 111.600 C 278.569 111.600,277.817 112.140,277.200 112.800 C 276.583 113.460,275.863 114.000,275.600 114.000 C 275.337 114.000,274.617 114.540,274.000 115.200 C 273.383 115.860,272.670 116.400,272.414 116.400 C 272.158 116.400,271.071 117.300,270.000 118.400 C 268.929 119.500,267.849 120.400,267.600 120.400 C 267.351 120.400,266.271 121.300,265.200 122.400 C 264.129 123.500,263.059 124.400,262.823 124.400 C 262.263 124.400,249.200 137.463,249.200 138.023 C 249.200 138.259,248.300 139.329,247.200 140.400 C 246.100 141.471,245.200 142.590,245.200 142.886 C 245.200 143.181,244.840 143.683,244.400 144.000 C 243.960 144.317,243.600 144.857,243.600 145.200 C 243.600 145.543,243.240 146.083,242.800 146.400 C 242.360 146.717,242.000 147.257,242.000 147.600 C 242.000 147.943,241.640 148.483,241.200 148.800 C 240.760 149.117,240.400 149.697,240.400 150.088 C 240.400 150.480,240.220 150.800,240.000 150.800 C 239.780 150.800,239.600 151.160,239.600 151.600 C 239.600 152.040,239.420 152.400,239.200 152.400 C 238.980 152.400,238.800 152.760,238.800 153.200 C 238.800 153.640,238.620 154.000,238.400 154.000 C 238.180 154.000,238.000 154.360,238.000 154.800 C 238.000 155.240,237.820 155.600,237.600 155.600 C 237.380 155.600,237.200 155.960,237.200 156.400 C 237.200 156.840,237.020 157.200,236.800 157.200 C 236.580 157.200,236.400 157.740,236.400 158.400 C 236.400 159.060,236.220 159.600,236.000 159.600 C 235.780 159.600,235.600 160.320,235.600 161.200 C 235.600 162.080,235.420 162.800,235.200 162.800 C 234.980 162.800,234.800 163.700,234.800 164.800 C 234.800 165.900,234.620 166.800,234.400 166.800 C 234.152 166.800,234.000 168.933,234.000 172.400 C 234.000 175.867,234.152 178.000,234.400 178.000 C 234.620 178.000,234.800 178.720,234.800 179.600 C 234.800 180.480,234.980 181.200,235.200 181.200 C 235.420 181.200,235.600 181.740,235.600 182.400 C 235.600 183.060,235.780 183.600,236.000 183.600 C 236.220 183.600,236.400 183.960,236.400 184.400 C 236.400 184.840,236.580 185.200,236.800 185.200 C 237.020 185.200,237.200 185.520,237.200 185.912 C 237.200 186.303,237.560 186.883,238.000 187.200 C 238.440 187.517,238.800 188.025,238.800 188.328 C 238.800 188.631,239.340 189.383,240.000 190.000 C 240.660 190.617,241.200 191.327,241.200 191.579 C 241.200 192.173,243.027 194.000,243.621 194.000 C 243.873 194.000,244.583 194.540,245.200 195.200 C 245.817 195.860,246.569 196.400,246.872 196.400 C 247.175 196.400,247.683 196.760,248.000 197.200 C 248.317 197.640,248.897 198.000,249.288 198.000 C 249.680 198.000,250.000 198.180,250.000 198.400 C 250.000 198.620,250.360 198.800,250.800 198.800 C 251.240 198.800,251.600 198.980,251.600 199.200 C 251.600 199.420,251.960 199.600,252.400 199.600 C 252.840 199.600,253.200 199.780,253.200 200.000 C 253.200 200.220,253.740 200.400,254.400 200.400 C 255.060 200.400,255.600 200.580,255.600 200.800 C 255.600 201.020,256.320 201.200,257.200 201.200 C 258.080 201.200,258.800 201.380,258.800 201.600 C 258.800 201.820,259.700 202.000,260.800 202.000 C 261.900 202.000,262.800 202.180,262.800 202.400 C 262.800 202.656,266.400 202.800,272.800 202.800 C 279.200 202.800,282.800 202.656,282.800 202.400 C 282.800 202.142,287.067 202.000,294.800 202.000 C 302.533 202.000,306.800 202.142,306.800 202.400 C 306.800 202.620,307.700 202.800,308.800 202.800 C 309.900 202.800,310.800 202.980,310.800 203.200 C 310.800 203.420,311.520 203.600,312.400 203.600 C 313.280 203.600,314.000 203.780,314.000 204.000 C 314.000 204.220,314.360 204.400,314.800 204.400 C 315.240 204.400,315.600 204.580,315.600 204.800 C 315.600 205.020,315.960 205.200,316.400 205.200 C 316.840 205.200,317.200 205.380,317.200 205.600 C 317.200 205.820,317.560 206.000,318.000 206.000 C 318.440 206.000,318.800 206.180,318.800 206.400 C 318.800 206.620,319.078 206.800,319.418 206.800 C 320.218 206.800,322.000 208.582,322.000 209.382 C 322.000 209.722,322.180 210.000,322.400 210.000 C 322.620 210.000,322.800 210.360,322.800 210.800 C 322.800 211.240,322.980 211.600,323.200 211.600 C 323.422 211.600,323.600 212.667,323.600 214.000 C 323.600 215.333,323.422 216.400,323.200 216.400 C 322.980 216.400,322.800 216.940,322.800 217.600 C 322.800 218.260,322.620 218.800,322.400 218.800 C 322.180 218.800,322.000 219.160,322.000 219.600 C 322.000 220.040,321.820 220.400,321.600 220.400 C 321.380 220.400,321.200 220.760,321.200 221.200 C 321.200 221.640,321.020 222.000,320.800 222.000 C 320.580 222.000,320.400 222.360,320.400 222.800 C 320.400 223.240,320.220 223.600,320.000 223.600 C 319.780 223.600,319.600 223.960,319.600 224.400 C 319.600 224.840,319.420 225.200,319.200 225.200 C 318.980 225.200,318.800 225.520,318.800 225.912 C 318.800 226.303,318.440 226.883,318.000 227.200 C 317.560 227.517,317.200 228.057,317.200 228.400 C 317.200 228.743,316.840 229.283,316.400 229.600 C 315.960 229.917,315.600 230.457,315.600 230.800 C 315.600 231.143,315.240 231.683,314.800 232.000 C 314.360 232.317,314.000 232.825,314.000 233.128 C 314.000 233.431,313.460 234.183,312.800 234.800 C 312.140 235.417,311.600 236.137,311.600 236.400 C 311.600 236.663,311.060 237.383,310.400 238.000 C 309.740 238.617,309.200 239.330,309.200 239.586 C 309.200 239.842,308.300 240.929,307.200 242.000 C 306.100 243.071,305.200 244.141,305.200 244.378 C 305.200 244.947,294.534 255.600,293.964 255.600 C 293.720 255.600,293.017 256.140,292.400 256.800 C 291.783 257.460,291.063 258.000,290.800 258.000 C 290.537 258.000,289.817 258.540,289.200 259.200 C 288.583 259.860,287.791 260.400,287.440 260.400 C 287.088 260.400,286.800 260.580,286.800 260.800 C 286.800 261.020,286.480 261.200,286.088 261.200 C 285.697 261.200,285.117 261.560,284.800 262.000 C 284.483 262.440,283.903 262.800,283.512 262.800 C 283.120 262.800,282.800 262.980,282.800 263.200 C 282.800 263.420,282.440 263.600,282.000 263.600 C 281.560 263.600,281.200 263.780,281.200 264.000 C 281.200 264.220,280.840 264.400,280.400 264.400 C 279.960 264.400,279.600 264.580,279.600 264.800 C 279.600 265.020,279.240 265.200,278.800 265.200 C 278.360 265.200,278.000 265.380,278.000 265.600 C 278.000 265.820,277.640 266.000,277.200 266.000 C 276.760 266.000,276.400 266.180,276.400 266.400 C 276.400 266.620,275.860 266.800,275.200 266.800 C 274.540 266.800,274.000 266.980,274.000 267.200 C 274.000 267.420,273.640 267.600,273.200 267.600 C 272.760 267.600,272.400 267.780,272.400 268.000 C 272.400 268.220,271.860 268.400,271.200 268.400 C 270.540 268.400,270.000 268.580,270.000 268.800 C 270.000 269.020,269.280 269.200,268.400 269.200 C 267.520 269.200,266.800 269.380,266.800 269.600 C 266.800 269.820,266.080 270.000,265.200 270.000 C 264.320 270.000,263.600 270.180,263.600 270.400 C 263.600 270.620,262.700 270.800,261.600 270.800 C 260.500 270.800,259.600 270.980,259.600 271.200 C 259.600 271.453,256.667 271.600,251.600 271.600 C 246.533 271.600,243.600 271.453,243.600 271.200 C 243.600 270.980,242.700 270.800,241.600 270.800 C 240.500 270.800,239.600 270.620,239.600 270.400 C 239.600 270.180,239.060 270.000,238.400 270.000 C 237.740 270.000,237.200 269.820,237.200 269.600 C 237.200 269.380,236.480 269.200,235.600 269.200 C 234.720 269.200,234.000 269.020,234.000 268.800 C 234.000 268.580,233.460 268.400,232.800 268.400 C 232.140 268.400,231.600 268.220,231.600 268.000 C 231.600 267.780,231.240 267.600,230.800 267.600 C 230.360 267.600,230.000 267.420,230.000 267.200 C 230.000 266.980,229.460 266.800,228.800 266.800 C 228.140 266.800,227.600 266.620,227.600 266.400 C 227.600 266.180,227.240 266.000,226.800 266.000 C 226.360 266.000,226.000 265.820,226.000 265.600 C 226.000 265.380,225.460 265.200,224.800 265.200 C 224.140 265.200,223.600 265.020,223.600 264.800 C 223.600 264.580,223.240 264.400,222.800 264.400 C 222.360 264.400,222.000 264.220,222.000 264.000 C 222.000 263.780,221.640 263.600,221.200 263.600 C 220.760 263.600,220.400 263.420,220.400 263.200 C 220.400 262.980,219.860 262.800,219.200 262.800 C 218.540 262.800,218.000 262.620,218.000 262.400 C 218.000 262.180,217.640 262.000,217.200 262.000 C 216.760 262.000,216.400 261.820,216.400 261.600 C 216.400 261.380,215.860 261.200,215.200 261.200 C 214.540 261.200,214.000 261.020,214.000 260.800 C 214.000 260.580,213.640 260.400,213.200 260.400 C 212.760 260.400,212.400 260.220,212.400 260.000 C 212.400 259.780,211.860 259.600,211.200 259.600 C 210.540 259.600,210.000 259.780,210.000 260.000 C 210.000 260.220,209.537 260.400,208.971 260.400 C 208.406 260.400,207.686 260.657,207.371 260.971 C 207.057 261.286,206.800 262.006,206.800 262.571 C 206.800 263.137,206.620 263.600,206.400 263.600 C 206.160 263.600,206.000 265.200,206.000 267.600 C 206.000 270.000,206.160 271.600,206.400 271.600 C 206.620 271.600,206.800 272.320,206.800 273.200 C 206.800 274.080,206.980 274.800,207.200 274.800 C 207.420 274.800,207.600 275.160,207.600 275.600 C 207.600 276.040,207.780 276.400,208.000 276.400 C 208.220 276.400,208.400 276.760,208.400 277.200 C 208.400 277.640,208.580 278.000,208.800 278.000 C 209.020 278.000,209.200 278.320,209.200 278.712 C 209.200 279.103,209.560 279.683,210.000 280.000 C 210.440 280.317,210.800 280.810,210.800 281.096 C 210.800 281.729,215.807 286.800,216.432 286.800 C 216.678 286.800,217.383 287.340,218.000 288.000 C 218.617 288.660,219.369 289.200,219.672 289.200 C 219.975 289.200,220.483 289.560,220.800 290.000 C 221.117 290.440,221.697 290.800,222.088 290.800 C 222.480 290.800,222.800 290.980,222.800 291.200 C 222.800 291.420,223.160 291.600,223.600 291.600 C 224.040 291.600,224.400 291.780,224.400 292.000 C 224.400 292.220,224.760 292.400,225.200 292.400 C 225.640 292.400,226.000 292.580,226.000 292.800 C 226.000 293.020,226.540 293.200,227.200 293.200 C 227.860 293.200,228.400 293.380,228.400 293.600 C 228.400 293.820,228.760 294.000,229.200 294.000 C 229.640 294.000,230.000 294.180,230.000 294.400 C 230.000 294.620,230.540 294.800,231.200 294.800 C 231.860 294.800,232.400 294.980,232.400 295.200 C 232.400 295.420,233.120 295.600,234.000 295.600 C 234.880 295.600,235.600 295.780,235.600 296.000 C 235.600 296.220,236.320 296.400,237.200 296.400 C 238.080 296.400,238.800 296.580,238.800 296.800 C 238.800 297.022,239.867 297.200,241.200 297.200 C 242.533 297.200,243.600 297.378,243.600 297.600 C 243.600 297.855,246.800 298.000,252.400 298.000 C 258.000 298.000,261.200 297.855,261.200 297.600 C 261.200 297.378,262.267 297.200,263.600 297.200 C 264.933 297.200,266.000 297.022,266.000 296.800 C 266.000 296.580,266.900 296.400,268.000 296.400 C 269.100 296.400,270.000 296.220,270.000 296.000 C 270.000 295.780,270.540 295.600,271.200 295.600 C 271.860 295.600,272.400 295.420,272.400 295.200 C 272.400 294.980,272.940 294.800,273.600 294.800 C 274.260 294.800,274.800 294.620,274.800 294.400 C 274.800 294.180,275.340 294.000,276.000 294.000 C 276.660 294.000,277.200 293.820,277.200 293.600 C 277.200 293.380,277.740 293.200,278.400 293.200 C 279.060 293.200,279.600 293.020,279.600 292.800 C 279.600 292.580,279.960 292.400,280.400 292.400 C 280.840 292.400,281.200 292.220,281.200 292.000 C 281.200 291.780,281.740 291.600,282.400 291.600 C 283.060 291.600,283.600 291.420,283.600 291.200 C 283.600 290.980,283.960 290.800,284.400 290.800 C 284.840 290.800,285.200 290.620,285.200 290.400 C 285.200 290.180,285.560 290.000,286.000 290.000 C 286.440 290.000,286.800 289.820,286.800 289.600 C 286.800 289.380,287.160 289.200,287.600 289.200 C 288.040 289.200,288.400 289.020,288.400 288.800 C 288.400 288.580,288.760 288.400,289.200 288.400 C 289.640 288.400,290.000 288.220,290.000 288.000 C 290.000 287.780,290.360 287.600,290.800 287.600 C 291.240 287.600,291.600 287.420,291.600 287.200 C 291.600 286.980,291.920 286.800,292.312 286.800 C 292.703 286.800,293.283 286.440,293.600 286.000 C 293.917 285.560,294.457 285.200,294.800 285.200 C 295.143 285.200,295.683 284.840,296.000 284.400 C 296.317 283.960,296.857 283.600,297.200 283.600 C 297.543 283.600,298.083 283.240,298.400 282.800 C 298.717 282.360,299.257 282.000,299.600 282.000 C 299.943 282.000,300.483 281.640,300.800 281.200 C 301.117 280.760,301.625 280.400,301.928 280.400 C 302.231 280.400,302.983 279.860,303.600 279.200 C 304.217 278.540,304.930 278.000,305.186 278.000 C 305.442 278.000,306.529 277.100,307.600 276.000 C 308.671 274.900,309.741 274.000,309.977 274.000 C 310.538 274.000,322.800 261.738,322.800 261.177 C 322.800 260.941,323.700 259.871,324.800 258.800 C 325.900 257.729,326.800 256.646,326.800 256.395 C 326.800 256.143,327.520 255.246,328.400 254.400 C 329.280 253.554,330.000 252.651,330.000 252.392 C 330.000 252.133,330.540 251.417,331.200 250.800 C 331.860 250.183,332.400 249.431,332.400 249.128 C 332.400 248.825,332.760 248.317,333.200 248.000 C 333.640 247.683,334.000 247.143,334.000 246.800 C 334.000 246.457,334.360 245.917,334.800 245.600 C 335.240 245.283,335.600 244.743,335.600 244.400 C 335.600 244.057,335.960 243.517,336.400 243.200 C 336.840 242.883,337.200 242.343,337.200 242.000 C 337.200 241.657,337.560 241.117,338.000 240.800 C 338.440 240.483,338.800 239.903,338.800 239.512 C 338.800 239.120,338.980 238.800,339.200 238.800 C 339.420 238.800,339.600 238.440,339.600 238.000 C 339.600 237.560,339.780 237.200,340.000 237.200 C 340.220 237.200,340.400 236.840,340.400 236.400 C 340.400 235.960,340.580 235.600,340.800 235.600 C 341.020 235.600,341.200 235.240,341.200 234.800 C 341.200 234.360,341.380 234.000,341.600 234.000 C 341.820 234.000,342.000 233.640,342.000 233.200 C 342.000 232.760,342.180 232.400,342.400 232.400 C 342.620 232.400,342.800 232.040,342.800 231.600 C 342.800 231.160,342.980 230.800,343.200 230.800 C 343.420 230.800,343.600 230.440,343.600 230.000 C 343.600 229.560,343.780 229.200,344.000 229.200 C 344.220 229.200,344.400 228.840,344.400 228.400 C 344.400 227.960,344.580 227.600,344.800 227.600 C 345.020 227.600,345.200 227.060,345.200 226.400 C 345.200 225.740,345.380 225.200,345.600 225.200 C 345.820 225.200,346.000 224.480,346.000 223.600 C 346.000 222.720,346.180 222.000,346.400 222.000 C 346.620 222.000,346.800 221.280,346.800 220.400 C 346.800 219.520,346.980 218.800,347.200 218.800 C 347.452 218.800,347.600 216.133,347.600 211.600 C 347.600 207.067,347.452 204.400,347.200 204.400 C 346.980 204.400,346.800 203.680,346.800 202.800 C 346.800 201.920,346.620 201.200,346.400 201.200 C 346.180 201.200,346.000 200.660,346.000 200.000 C 346.000 199.340,345.820 198.800,345.600 198.800 C 345.380 198.800,345.200 198.440,345.200 198.000 C 345.200 197.560,345.020 197.200,344.800 197.200 C 344.580 197.200,344.400 196.840,344.400 196.400 C 344.400 195.960,344.220 195.600,344.000 195.600 C 343.780 195.600,343.600 195.280,343.600 194.888 C 343.600 194.497,343.240 193.917,342.800 193.600 C 342.360 193.283,342.000 192.791,342.000 192.507 C 342.000 191.832,334.568 184.400,333.893 184.400 C 333.609 184.400,333.117 184.040,332.800 183.600 C 332.483 183.160,331.903 182.800,331.512 182.800 C 331.120 182.800,330.800 182.620,330.800 182.400 C 330.800 182.180,330.440 182.000,330.000 182.000 C 329.560 182.000,329.200 181.820,329.200 181.600 C 329.200 181.380,328.840 181.200,328.400 181.200 C 327.960 181.200,327.600 181.020,327.600 180.800 C 327.600 180.580,327.240 180.400,326.800 180.400 C 326.360 180.400,326.000 180.220,326.000 180.000 C 326.000 179.780,325.460 179.600,324.800 179.600 C 324.140 179.600,323.600 179.420,323.600 179.200 C 323.600 178.980,323.060 178.800,322.400 178.800 C 321.740 178.800,321.200 178.620,321.200 178.400 C 321.200 178.180,320.300 178.000,319.200 178.000 C 318.100 178.000,317.200 177.820,317.200 177.600 C 317.200 177.378,316.133 177.200,314.800 177.200 C 313.467 177.200,312.400 177.022,312.400 176.800 C 312.400 176.546,309.333 176.400,304.000 176.400 C 298.667 176.400,295.600 176.546,295.600 176.800 C 295.600 177.059,290.667 177.200,281.600 177.200 C 272.533 177.200,267.600 177.059,267.600 176.800 C 267.600 176.580,267.240 176.400,266.800 176.400 C 266.360 176.400,266.000 176.220,266.000 176.000 C 266.000 175.780,265.640 175.600,265.200 175.600 C 264.760 175.600,264.400 175.420,264.400 175.200 C 264.400 174.980,264.122 174.800,263.782 174.800 C 262.982 174.800,261.200 173.018,261.200 172.218 C 261.200 171.878,261.020 171.600,260.800 171.600 C 260.580 171.600,260.400 171.240,260.400 170.800 C 260.400 170.360,260.220 170.000,260.000 170.000 C 259.780 170.000,259.600 169.100,259.600 168.000 C 259.600 166.900,259.780 166.000,260.000 166.000 C 260.220 166.000,260.400 165.280,260.400 164.400 C 260.400 163.520,260.580 162.800,260.800 162.800 C 261.020 162.800,261.200 162.440,261.200 162.000 C 261.200 161.560,261.380 161.200,261.600 161.200 C 261.820 161.200,262.000 160.880,262.000 160.488 C 262.000 160.097,262.360 159.517,262.800 159.200 C 263.240 158.883,263.600 158.392,263.600 158.109 C 263.600 157.495,276.607 144.400,277.216 144.400 C 277.449 144.400,278.881 143.140,280.400 141.600 C 281.919 140.060,283.364 138.800,283.612 138.800 C 283.860 138.800,284.754 138.080,285.600 137.200 C 286.446 136.320,287.349 135.600,287.608 135.600 C 287.867 135.600,288.583 135.060,289.200 134.400 C 289.817 133.740,290.569 133.200,290.872 133.200 C 291.175 133.200,291.683 132.840,292.000 132.400 C 292.317 131.960,292.857 131.600,293.200 131.600 C 293.543 131.600,294.083 131.240,294.400 130.800 C 294.717 130.360,295.257 130.000,295.600 130.000 C 295.943 130.000,296.483 129.640,296.800 129.200 C 297.117 128.760,297.657 128.400,298.000 128.400 C 298.343 128.400,298.883 128.040,299.200 127.600 C 299.517 127.160,300.097 126.800,300.488 126.800 C 300.880 126.800,301.200 126.620,301.200 126.400 C 301.200 126.180,301.520 126.000,301.912 126.000 C 302.303 126.000,302.883 125.640,303.200 125.200 C 303.517 124.760,304.097 124.400,304.488 124.400 C 304.880 124.400,305.200 124.220,305.200 124.000 C 305.200 123.780,305.560 123.600,306.000 123.600 C 306.440 123.600,306.800 123.420,306.800 123.200 C 306.800 122.980,307.160 122.800,307.600 122.800 C 308.040 122.800,308.400 122.620,308.400 122.400 C 308.400 122.180,308.760 122.000,309.200 122.000 C 309.640 122.000,310.000 121.820,310.000 121.600 C 310.000 121.380,310.360 121.200,310.800 121.200 C 311.240 121.200,311.600 121.020,311.600 120.800 C 311.600 120.580,312.140 120.400,312.800 120.400 C 313.460 120.400,314.000 120.220,314.000 120.000 C 314.000 119.780,314.360 119.600,314.800 119.600 C 315.240 119.600,315.600 119.420,315.600 119.200 C 315.600 118.980,315.960 118.800,316.400 118.800 C 316.840 118.800,317.200 118.620,317.200 118.400 C 317.200 118.180,317.740 118.000,318.400 118.000 C 319.060 118.000,319.600 117.820,319.600 117.600 C 319.600 117.380,320.140 117.200,320.800 117.200 C 321.460 117.200,322.000 117.020,322.000 116.800 C 322.000 116.580,322.720 116.400,323.600 116.400 C 324.480 116.400,325.200 116.220,325.200 116.000 C 325.200 115.780,326.100 115.600,327.200 115.600 C 328.300 115.600,329.200 115.420,329.200 115.200 C 329.200 114.951,331.467 114.800,335.200 114.800 C 338.933 114.800,341.200 114.951,341.200 115.200 C 341.200 115.420,341.740 115.600,342.400 115.600 C 343.060 115.600,343.600 115.780,343.600 116.000 C 343.600 116.220,344.140 116.400,344.800 116.400 C 345.460 116.400,346.000 116.580,346.000 116.800 C 346.000 117.020,346.540 117.200,347.200 117.200 C 347.860 117.200,348.400 117.380,348.400 117.600 C 348.400 117.820,348.940 118.000,349.600 118.000 C 350.260 118.000,350.800 118.180,350.800 118.400 C 350.800 118.620,351.700 118.800,352.800 118.800 C 353.900 118.800,354.800 118.980,354.800 119.200 C 354.800 119.440,356.400 119.600,358.800 119.600 C 361.200 119.600,362.800 119.440,362.800 119.200 C 362.800 118.980,363.083 118.800,363.429 118.800 C 364.200 118.800,365.200 117.849,365.200 117.117 C 365.200 116.820,365.560 116.317,366.000 116.000 C 366.470 115.661,366.800 114.965,366.800 114.312 C 366.800 113.700,366.980 113.200,367.200 113.200 C 367.442 113.200,367.600 111.467,367.600 108.800 C 367.600 106.133,367.442 104.400,367.200 104.400 C 366.980 104.400,366.800 103.680,366.800 102.800 C 366.800 101.920,366.620 101.200,366.400 101.200 C 366.180 101.200,366.000 100.840,366.000 100.400 C 366.000 99.960,365.820 99.600,365.600 99.600 C 365.380 99.600,365.200 99.280,365.200 98.888 C 365.200 98.497,364.840 97.917,364.400 97.600 C 363.960 97.283,363.600 96.785,363.600 96.494 C 363.600 95.844,361.809 94.000,361.179 94.000 C 360.927 94.000,360.217 93.460,359.600 92.800 C 358.983 92.140,358.191 91.600,357.840 91.600 C 357.488 91.600,357.200 91.420,357.200 91.200 C 357.200 90.980,356.840 90.800,356.400 90.800 C 355.960 90.800,355.600 90.620,355.600 90.400 C 355.600 90.180,355.240 90.000,354.800 90.000 C 354.360 90.000,354.000 89.820,354.000 89.600 C 354.000 89.380,353.280 89.200,352.400 89.200 C 351.520 89.200,350.800 89.020,350.800 88.800 C 350.800 88.580,350.080 88.400,349.200 88.400 C 348.320 88.400,347.600 88.220,347.600 88.000 C 347.600 87.747,344.800 87.600,340.000 87.600 C 335.200 87.600,332.400 87.747,332.400 88.000 " stroke="none" fill="#cc0c2c" fill-rule="evenodd"></path><path id="path2" d="" stroke="none" fill="#3cd024" fill-rule="evenodd"></path><path id="path3" d="" stroke="none" fill="#3cd024" fill-rule="evenodd"></path><path id="path4" d="" stroke="none" fill="#3cd024" fill-rule="evenodd"></path></g></svg>